# xmcd
#
# Track frame offsets: 
#        150
#        13335
#        29270
#        42522
#        56197
#        74341
#        87549
#        102184
#        114134
#        128251
#        146545
#        161307
#        175465
#
# Disc length: 2634 seconds
#
# Revision: 1
# Processed by: cddbd v1.5.2PL0 Copyright (c) Steve Scherf et al.
# Submitted via: ExactAudioCopy v1.0b3
#
DISCID=ad0a480d
DTITLE=Toby Keith - Drinks After Work {Deluxe Edition}
DYEAR=2013
DGENRE=Country
TTITLE0=Shut Up And Hold On
TTITLE1=Drinks After Work
TTITLE2=Before We Knew They Were Good
TTITLE3=Little Miss Tear Stain
TTITLE4=The Other Side Of Him
TTITLE5=Last Living Cowboy
TTITLE6=Show Me What You’Re Workin’ With
TTITLE7=Whole Lot More Than That
TTITLE8=I'll Probably Be Out Fishin'
TTITLE9=Hard Way To Make An Easy Living
TTITLE10=Call A Marine
TTITLE11=Chuckie's Gone
TTITLE12=Margaritaville (Featuring Sammy Hagar)
EXTD=
EXTT0=
EXTT1=
EXTT2=
EXTT3=
EXTT4=
EXTT5=
EXTT6=
EXTT7=
EXTT8=
EXTT9=
EXTT10=
EXTT11=
EXTT12=
PLAYORDER=
